<?xml version="1.0" encoding="iso-8859-1"?>
<!-- Generator: Adobe Illustrator 21.0.0, SVG Export Plug-In . SVG Version: 6.00 Build 0)  -->
<svg xmlns="http://www.w3.org/2000/svg" xmlns:xlink="http://www.w3.org/1999/xlink" version="1.1" id="Capa_1" x="0px" y="0px" viewBox="0 0 512.987 512.987" style="enable-background:new 0 0 512.987 512.987;" xml:space="preserve" width="512" height="512">
<g>
	<g>
		<polygon style="fill:#FFE07D;" points="413.167,249.133 428.719,280.644 463.494,285.697 438.331,310.227 444.271,344.86     413.167,328.509 382.062,344.86 388.004,310.227 362.84,285.697 397.614,280.644   "/>
	</g>
	<g>
		<polygon style="fill:#FFE07D;" points="97.167,173.987 112.719,205.498 147.494,210.552 122.331,235.081 128.271,269.715     97.167,253.363 66.062,269.715 72.004,235.081 46.84,210.552 81.614,205.498   "/>
	</g>
	<g>
		<g>
			<g>
				<path style="fill:#FFD064;" d="M220.879,42.668c-36.471,0-31.261-35.168-31.261-35.168h31.261l1.614,16.987L220.879,42.668z"/>
			</g>
			<g>
				<path style="fill:#FFD064;" d="M292.684,42.668c36.471,0,31.261-35.168,31.261-35.168h-31.261l-1.614,16.987L292.684,42.668z"/>
			</g>
			<g>
				<path style="fill:#FFE07D;" d="M220.811,7.5v51.371c0,19.86,16.105,35.963,35.964,35.963l0,0      c19.86,0,35.964-16.103,35.964-35.963V7.5H220.811z"/>
			</g>
			<g>
				<path style="fill:#FFE07D;" d="M219.999,165.975c0-20.071,16.271-36.342,36.343-36.342c20.071,0,36.342,16.271,36.342,36.342      H219.999z"/>
			</g>
		</g>
	</g>
	<g>
		<g>
			<g>
				<g>
					<path style="fill:#C3DDFF;" d="M332.273,505.487H179.677V222.85c0-6.506,5.271-11.783,11.773-11.783h129.048       c6.504,0,11.774,5.277,11.774,11.783V505.487z"/>
				</g>
				<path style="fill:#A4CCFF;" d="M320.499,211.066h-40c6.504,0,11.774,5.277,11.774,11.783v282.638h40V222.85      C332.273,216.344,327.002,211.066,320.499,211.066z"/>
				<g>
					<path style="fill:#B3E59F;" d="M485.911,505.487H333.31V399.715c0-6.507,5.273-11.783,11.775-11.783h129.047       c6.506,0,11.778,5.276,11.778,11.783V505.487z"/>
				</g>
				<path style="fill:#95D6A4;" d="M474.132,387.932h-40c6.506,0,11.778,5.276,11.778,11.783v105.772h40V399.715      C485.911,393.208,480.638,387.932,474.132,387.932z"/>
				<g>
					<path style="fill:#FF8086;" d="M179.677,505.487H27.077V321.355c0-6.506,5.273-11.779,11.778-11.779h129.046       c6.505,0,11.776,5.273,11.776,11.779V505.487z"/>
				</g>
				<path style="fill:#E5646E;" d="M167.901,309.576h-40c6.505,0,11.776,5.273,11.776,11.779v184.132h40V321.355      C179.677,314.85,174.406,309.576,167.901,309.576z"/>
			</g>
		</g>
	</g>
</g>
<g>
	<path d="M379.946,312.845l-5.275,30.747c-0.483,2.814,0.674,5.658,2.983,7.336c2.309,1.678,5.369,1.9,7.898,0.571l27.615-14.517   l27.613,14.517c1.098,0.577,2.296,0.861,3.489,0.861c1.556,0,3.103-0.483,4.409-1.433c2.31-1.678,3.467-4.521,2.983-7.335   l-5.273-30.748l22.34-21.777c2.044-1.992,2.779-4.973,1.897-7.688s-3.229-4.694-6.054-5.104l-30.873-4.487l-13.807-27.975   c-1.264-2.56-3.871-4.181-6.726-4.181s-5.462,1.621-6.726,4.181l-13.809,27.975l-30.872,4.487c-2.824,0.41-5.172,2.39-6.054,5.104   s-0.146,5.695,1.897,7.688L379.946,312.845z M398.693,288.065c2.442-0.354,4.554-1.889,5.646-4.103l8.828-17.885l8.826,17.885   c1.093,2.214,3.204,3.748,5.646,4.103l19.737,2.868l-14.282,13.923c-1.768,1.723-2.574,4.205-2.156,6.638l3.371,19.656   l-17.652-9.28c-1.093-0.574-2.291-0.861-3.49-0.861c-1.198,0-2.397,0.287-3.49,0.861l-17.653,9.28l3.372-19.655   c0.418-2.434-0.389-4.916-2.156-6.64l-14.282-13.922L398.693,288.065z"/>
	<path d="M63.946,237.699l-5.275,30.747c-0.483,2.814,0.674,5.658,2.983,7.336c2.309,1.678,5.37,1.901,7.898,0.571l27.615-14.517   l27.613,14.517c1.098,0.577,2.296,0.861,3.489,0.861c1.556,0,3.103-0.483,4.409-1.433c2.31-1.678,3.467-4.521,2.983-7.335   l-5.273-30.748l22.34-21.777c2.044-1.992,2.779-4.973,1.897-7.688s-3.229-4.694-6.054-5.104l-30.873-4.486l-13.807-27.976   c-1.264-2.56-3.871-4.181-6.726-4.181s-5.462,1.621-6.726,4.181l-13.809,27.975l-30.872,4.487c-2.824,0.41-5.172,2.39-6.054,5.104   s-0.146,5.695,1.897,7.688L63.946,237.699z M82.693,212.92c2.442-0.354,4.554-1.889,5.646-4.103l8.828-17.885l8.826,17.885   c1.093,2.214,3.204,3.748,5.646,4.103l19.737,2.868l-14.282,13.923c-1.768,1.723-2.574,4.205-2.156,6.638l3.371,19.656   l-17.652-9.28c-1.093-0.574-2.291-0.861-3.49-0.861c-1.198,0-2.397,0.287-3.49,0.861l-17.653,9.28l3.372-19.655   c0.418-2.434-0.389-4.916-2.156-6.639l-14.282-13.923L82.693,212.92z"/>
	<path d="M213.311,49.754v9.117c0,21.407,15.562,39.236,35.964,42.802v21.037c-18.379,2.992-32.949,17.446-36.121,35.764h-10.497   c-9.673,0-9.673,15,0,15h107.676c9.673,0,9.673-15,0-15h-10.804c-3.122-18.028-17.285-32.31-35.253-35.609v-21.193   c20.402-3.565,35.964-21.395,35.964-42.802v-9.195c9.575-1.288,17.185-5.134,22.673-11.494c11.104-12.871,8.565-31.015,8.452-31.78   C330.819,2.724,327.663,0,323.945,0h-31.206h-0.36h-71.567c-0.034,0-0.066,0.005-0.1,0.005c-0.034,0-0.066-0.005-0.1-0.005h-31.567   c-3.718,0-6.874,2.724-7.419,6.401c-0.113,0.766-2.652,18.909,8.452,31.78C195.672,44.667,203.469,48.544,213.311,49.754z    M284.194,158.475h-55.706c3.31-12.278,14.543-21.342,27.854-21.342C269.651,137.133,280.884,146.196,284.194,158.475z    M311.554,28.383c-2.646,3.067-6.438,5.101-11.315,6.089V15h16.334C316.22,19.089,315.025,24.359,311.554,28.383z M228.311,15   h56.928v26.796c-0.033,0.286-0.055,0.576-0.055,0.872s0.021,0.585,0.055,0.872v15.331c0,15.694-12.769,28.463-28.464,28.463   s-28.464-12.769-28.464-28.463V15z M213.311,15v19.576c-5.115-0.936-9.08-2.983-11.823-6.132c-3.511-4.028-4.715-9.333-5.07-13.444   H213.311z"/>
	<path d="M504.994,497.987h-11.583v-98.272c0-10.633-8.648-19.283-19.278-19.283H345.085c-1.844,0-3.623,0.276-5.313,0.762V222.85   c0-10.633-8.646-19.283-19.274-19.283H191.451c-10.627,0-19.273,8.65-19.273,19.283v79.721c-1.378-0.314-2.805-0.495-4.276-0.495   H38.855c-10.63,0-19.278,8.648-19.278,19.279v58.632c0,9.673,15,9.673,15,0v-58.632c0-2.359,1.919-4.279,4.278-4.279h129.046   c2.358,0,4.276,1.92,4.276,4.279v176.632H34.577v-81c0-9.673-15-9.673-15,0v81H7.994c-4.143,0-7.5,3.357-7.5,7.5s3.357,7.5,7.5,7.5   h497c4.143,0,7.5-3.357,7.5-7.5S509.136,497.987,504.994,497.987z M187.177,497.987V321.355V222.85   c0-2.361,1.917-4.283,4.273-4.283h129.048c2.356,0,4.274,1.922,4.274,4.283v275.138H187.177z M340.81,497.987v-98.272   c0-2.361,1.918-4.283,4.275-4.283h129.047c2.359,0,4.278,1.922,4.278,4.283v98.272H340.81z"/>
</g>















</svg>
