<?xml version="1.0" encoding="iso-8859-1"?>
<!-- Generator: Adobe Illustrator 19.0.0, SVG Export Plug-In . SVG Version: 6.00 Build 0)  -->
<svg version="1.1" id="Capa_1" xmlns="http://www.w3.org/2000/svg" xmlns:xlink="http://www.w3.org/1999/xlink" x="0px" y="0px"
	 viewBox="0 0 512.103 512.103" style="enable-background:new 0 0 512.103 512.103;" xml:space="preserve">
<path style="fill:#FFD15C;" d="M268.685,267.83l5.333,7.467c0,0-1.067,21.333,0,27.733l-36.267,13.867l-17.067-39.467
	L268.685,267.83z"/>
<path style="fill:#F26F5A;" d="M235.618,312.63c0,0,7.467-2.133,9.6-4.267c2.133-2.133,22.4-11.733,27.733-9.6
	c0,0,2.133,17.067,6.4,20.267c0,0,5.333,14.933,10.667,26.667c5.333,11.733,9.6,23.467,11.733,36.267
	c1.067,7.467,2.133,13.867,3.2,17.067c3.2,8.533,7.467,41.6,7.467,41.6l-16,14.933c0,0-10.667,0-10.667-10.667
	c-1.067-10.667,0-8.533-3.2-18.133c-3.2-9.6-10.667-26.667-10.667-26.667s-16-16-20.267-46.933
	C251.618,353.163,238.818,320.096,235.618,312.63z"/>
<path style="fill:#2F4251;" d="M308.151,473.696c0,0,5.333,8.533,6.4,9.6c2.133,1.067,2.133,0,2.133,0v-3.2h1.067l1.067,2.133
	c1.067,0,2.133,0,2.133-1.067v-3.2l2.133,2.133c2.133,0,4.267-1.067,6.4-2.133v-2.133c1.067-1.067,1.067-2.133,2.133-1.067
	l1.067,1.067c1.067,1.067,2.133,1.067,3.2-1.067l0-5.333l-3.2-5.333L308.151,473.696z"/>
<g>
	<path style="fill:#FFD15C;" d="M116.151,147.296c0,0,3.2,24.533-4.267,42.667c-7.467,18.133-8.533,38.4-8.533,38.4s0,6.4,3.2,9.6
		c3.2,2.133,4.267,9.6,4.267,9.6s0,7.467,2.133,11.733s3.2,8.533,2.133,9.6c-1.067,1.067-4.267,2.133-6.4-1.067
		c-2.133-3.2-3.2-7.467-3.2-7.467l-1.067-2.133c0,0-3.2,1.067-3.2,4.267c1.067,4.267,1.067,4.267,1.067,4.267s1.067,3.2,1.067,5.333
		c0,0,3.2,2.133,3.2,4.267c0,0,5.333,2.133,4.267,5.333c0,0-1.067,1.067-3.2,0c0,0-2.133,0-3.2-1.067
		c-1.067-2.133-8.533-7.467-8.533-7.467s-4.267-6.4-4.267-7.467l-3.2-5.333c0,0,1.067-19.2,2.133-21.333c0,0,1.067-4.267,0-6.4
		c-1.067-1.067-2.133-7.467-1.067-8.533c0,0,0-14.933-1.067-33.067s5.333-46.933,8.533-55.467L116.151,147.296z"/>
	<path style="fill:#FFD15C;" d="M332.685,92.896l3.2-2.133c0,0,20.267,7.467,26.667,13.867c6.4,6.4,22.4,14.933,22.4,14.933
		s3.2,0,5.333,3.2c1.067,2.133,4.267,1.067,4.267,1.067s7.467-1.067,11.733,1.067c3.2,1.067,9.6,3.2,10.667,4.267l2.133,2.133
		l4.267,7.467c0,0,1.067,2.133,2.133,3.2c0,0-1.067,4.267-4.267,2.133c0,0-2.133,2.133-5.333-1.067
		c-2.133-2.133-2.133-3.2-2.133-3.2s-4.267-3.2-5.333-4.267c0,0-1.067,0-1.067,1.067c0,0,3.2,3.2,3.2,4.267
		c0,1.067-2.133,3.2-5.333,2.133c-3.2-2.133-4.267-2.133-4.267-2.133s-5.333,2.133-7.467,2.133c0,0-2.133,3.2-4.267,4.267
		c0,0,0,5.333-3.2,4.267l-2.133-2.133c0,0-2.133-2.133-3.2-2.133s-5.333-4.267-4.267-5.333c1.067-2.133,1.067-3.2,1.067-3.2
		s-5.333-3.2-9.6-3.2c-4.267,0-34.133-3.2-39.467-12.8C323.085,111.03,332.685,92.896,332.685,92.896z"/>
</g>
<path style="fill:#48B9A5;" d="M198.285,252.896v14.933l-4.267,4.267l-4.267,2.133l-7.467,1.067l-8.533,3.2
	c0,0-2.133,9.6,4.267,14.933c5.333,5.333,14.933-5.333,14.933-5.333s4.267-5.333,4.267-8.533s5.333-10.667,5.333-10.667
	s6.4-5.333,7.467-11.733C210.018,252.896,198.285,252.896,198.285,252.896z"/>
<path style="fill:#FFD15C;" d="M170.551,269.963c-1.067,5.333-3.2,9.6-6.4,12.8l-9.6,7.467l-17.067,3.2l-6.4-5.333
	c-1.067-2.133-1.067-4.267-2.133-6.4c0-2.133,0-4.267-1.067-5.333c-1.067-4.267-2.133-12.8-1.067-21.333
	c2.133-12.8,11.733-11.733,11.733-11.733L170.551,269.963z"/>
<polygon style="fill:#F5B54C;" points="205.751,64.096 208.951,66.23 213.218,108.896 196.151,127.03 157.751,88.63 159.885,63.03 
	"/>
<path style="fill:#F26F5A;" d="M334.818,105.696c-1.067,3.2-2.133,5.333-2.133,7.467c-1.067,5.333-3.2,9.6-6.4,13.867
	c-3.2,3.2-7.467,6.4-12.8,5.333c-11.733-2.133-12.8-3.2-17.067-3.2s-8.533-1.067-8.533-1.067s-2.133-1.067-6.4-1.067
	s-13.867,0-13.867,0s-3.2,0-4.267,4.267c-1.067,4.267-5.333,9.6-9.6,10.667c-4.267,1.067,2.133,20.267,2.133,20.267
	s-2.133,10.667-3.2,13.867c0,0,3.2,3.2,1.067,12.8c0,0,0,3.2,2.133,5.333c2.133,2.133,6.4,20.267,6.4,20.267
	s-26.667,26.667-64,24.533c-37.333-3.2-37.333-3.2-37.333-3.2s-27.733,2.133-28.8-19.2c0,0-1.067-7.467,1.067-10.667
	c2.133-3.2,1.067-8.533,1.067-8.533s-1.067-4.267,1.067-5.333c2.133-1.067-1.067-3.2-1.067-3.2s-1.067-9.6,3.2-16
	c0,0-3.2-18.133,0-27.733c0,0-3.2-2.133-3.2-3.2c0,0-9.6,12.8-10.667,19.2c0,0-7.467,1.067-11.733,1.067
	c-4.267-1.067-11.733-2.133-12.8-6.4c-1.067-3.2-4.267-3.2-10.667-11.733c0,0-3.2-2.133-1.067-8.533c3.2-5.333,14.933-32,14.933-32
	s11.733-20.267,11.733-23.467c0-3.2,4.267-6.4,6.4-7.467c2.133-1.067,4.267-4.267,4.267-4.267s3.2-3.2,7.467-3.2
	c3.2,0,7.467-3.2,7.467-3.2s6.4-4.267,11.733-5.333c1.067,0,1.067,0,2.133,0c8.533,24.533,23.467,40.533,39.467,55.467
	c0,0,6.4-7.467,13.867-22.4c6.4-13.867,2.133-29.867-2.133-41.6h1.067l1.067,5.333c0,0,25.6-2.133,36.267,5.333
	c0,0,12.8,0,18.133,4.267c0,0,22.4,6.4,29.867,12.8c7.467,6.4,14.933,5.333,14.933,5.333s4.267,3.2,14.933,5.333
	c9.6,1.067,17.067,7.467,17.067,7.467S338.018,99.296,334.818,105.696z"/>
<path style="fill:#F3F3F3;" d="M211.085,52.363c-3.2,0-5.333,0-5.333,0l-1.067-5.333h-1.067c4.267,10.667,9.6,27.733,2.133,41.6
	c-7.467,14.933-13.867,22.4-13.867,22.4c-16-14.933-30.933-30.933-39.467-55.467c-1.067,0-1.067,0-2.133,0s-2.133,0-3.2,1.067
	c8.533,24.533,22.4,41.6,40.533,57.6c1.067,1.067,2.133,1.067,3.2,1.067c1.067,0,3.2-1.067,4.267-2.133
	c0,0,7.467-8.533,14.933-23.467C217.485,79.03,214.285,64.096,211.085,52.363z"/>
<path style="fill:#FFD15C;" d="M207.885,54.496c0,0,3.2,18.133-3.2,25.6c-5.333,7.467-6.4,10.667-6.4,10.667s-5.333,9.6-12.8,8.533
	c-7.467-1.067-11.733-6.4-11.733-6.4s0-1.067-3.2-3.2c-3.2-1.067-12.8-9.6-14.933-17.067c0,0-2.133-5.333-2.133-8.533
	c0-2.133-2.133-8.533-3.2-9.6c-1.067,0-1.067-7.467-1.067-7.467l52.267-3.2L207.885,54.496z"/>
<path style="fill:#425B6B;" d="M150.285,55.563c0,0-2.133-6.4,4.267-5.333c6.4,1.067,13.867,7.467,18.133,2.133
	c4.267-5.333,14.933-2.133,14.933-2.133s5.333,1.067,7.467-1.067c2.133-2.133,5.333,1.067,5.333,1.067l4.267,7.467l2.133-1.067
	c0,0-3.2-4.267-2.133-7.467c1.067-4.267,2.133-8.533,2.133-8.533s-1.067-10.667-2.133-14.933S200.418,5.43,184.418,1.163
	s-26.667,4.267-33.067,8.533c-5.333,4.267-11.733,16-10.667,25.6C143.885,43.83,148.151,54.496,150.285,55.563z"/>
<g>
	<path style="fill:#FFD15C;" d="M206.818,56.63c-1.067-2.133-2.133-5.333-1.067-8.533c1.067-3.2,1.067-8.533,3.2-9.6
		s4.267-1.067,4.267,1.067c1.067,2.133,0,4.267,0,4.267s-1.067,6.4,0,8.533c1.067,2.133-1.067,5.333-2.133,6.4
		C208.951,58.763,208.951,58.763,206.818,56.63L206.818,56.63z"/>
	<path style="fill:#FFD15C;" d="M203.618,261.43c-1.067-6.4-5.333-7.467-5.333-7.467h-2.133l-12.8,14.933l-14.933-2.133
		c0,0,1.067,10.667-4.267,14.933c-4.267,3.2-8.533,5.333-12.8,7.467c-2.133,1.067-4.267,1.067-6.4,2.133
		c-5.333,1.067-7.467,0-7.467,0s-6.4-2.133-8.533-9.6c0,0,0,3.2,0,4.267c1.067,2.133,2.133,3.2,3.2,4.267
		c2.133,2.133,6.4,3.2,9.6,2.133c3.2,0,6.4-1.067,9.6-2.133c2.133-1.067,4.267-1.067,6.4-2.133c2.133-1.067,4.267-3.2,5.333-4.267
		l11.733-4.267c0,0,9.6-1.067,9.6-2.133c0,0,0,1.067,3.2,1.067c3.2,0,8.533-3.2,8.533-3.2S203.618,267.83,203.618,261.43z"/>
</g>
<path style="fill:#425A6B;" d="M255.885,211.296l7.467,1.067c0,0,1.067,1.067,2.133,9.6c1.067,8.533,3.2,13.867,3.2,13.867
	s3.2,7.467,3.2,12.8c0,5.333,0,7.467,1.067,10.667c1.067,3.2,1.067,14.933,1.067,14.933c-20.267,10.667-43.733,10.667-53.333,2.133
	l-11.733-19.2c-1.067-3.2-6.4-3.2-11.733-4.267c0,0-6.4,6.4-10.667,12.8c-3.2,6.4-10.667,8.533-17.067,8.533
	c-10.667-1.067-21.333-3.2-32-8.533c-1.067-1.067-3.2-1.067-4.267-2.133l0,0c-5.333-4.267-7.467-10.667-6.4-17.067l6.4-33.067
	L255.885,211.296z"/>
<path style="fill:#48B9A5;" d="M288.951,452.363c0,0,9.6-1.067,9.6-3.2c0,0-5.333-4.267,1.067-6.4
	c6.4-2.133,13.867-2.133,13.867-2.133s3.2,1.067,7.467,8.533c3.2,6.4,8.533,8.533,12.8,10.667c2.133,1.067,7.467,5.333,2.133,9.6
	c0,0-6.4-1.067-12.8,3.2c-6.4,4.267-8.533,8.533-12.8,5.333c-4.267-3.2-6.4-7.467-6.4-7.467L288.951,452.363z"/>
<ellipse transform="matrix(-0.0036 -1 1 -0.0036 -197.6545 741.9193)" style="fill:#E8EAE8;" cx="270.814" cy="469.436" rx="42.667" ry="41.6"/>
<g>
	<polygon style="fill:#2F4251;" points="276.151,485.43 271.885,469.43 285.751,458.763 297.485,469.43 292.151,485.43 	"/>
	<polygon style="fill:#2F4251;" points="243.085,498.23 255.885,507.829 268.685,505.696 264.418,496.096 247.351,490.763 	"/>
	<polygon style="fill:#2F4251;" points="244.151,473.696 254.818,463.03 251.618,448.096 239.885,449.163 234.551,464.096 	"/>
	<polygon style="fill:#2F4251;" points="267.618,437.43 282.551,442.763 293.218,437.43 282.551,428.896 267.618,428.896 	"/>
	<path style="fill:#2F4251;" d="M308.151,449.163l-2.133,1.067l1.067,13.867l4.267,9.6h1.067c0-1.067,0-2.133,0-4.267
		C313.485,461.963,311.351,455.563,308.151,449.163z"/>
	<path style="fill:#2F4251;" d="M304.951,495.03l1.067-3.2l-9.6,4.267l-10.667,10.667l1.067,1.067h1.067
		C294.285,505.696,300.685,501.43,304.951,495.03z"/>
</g>
<g>
</g>
<g>
</g>
<g>
</g>
<g>
</g>
<g>
</g>
<g>
</g>
<g>
</g>
<g>
</g>
<g>
</g>
<g>
</g>
<g>
</g>
<g>
</g>
<g>
</g>
<g>
</g>
<g>
</g>
</svg>
